<?xml version="1.0" encoding="UTF-8" standalone="no"?>
<!DOCTYPE svg PUBLIC "-//W3C//DTD SVG 1.1//EN"
 "http://www.w3.org/Graphics/SVG/1.1/DTD/svg11.dtd">
<!-- Generated by graphviz version 2.50.0 (0)
 -->
<!-- Title: G Pages: 1 -->
<svg width="257pt" height="801pt"
 viewBox="0.00 0.00 256.56 800.65" xmlns="http://www.w3.org/2000/svg" xmlns:xlink="http://www.w3.org/1999/xlink">
<g id="graph0" class="graph" transform="scale(1 1) rotate(0) translate(4 796.65)">
<title>G</title>
<polygon fill="white" stroke="transparent" points="-4,4 -4,-796.65 252.56,-796.65 252.56,4 -4,4"/>
<!-- main -->
<g id="node1" class="node">
<title>main</title>
<polygon fill="none" stroke="black" points="75.06,-787.15 31.06,-787.15 31.06,-743.15 75.06,-743.15 75.06,-787.15"/>
<text text-anchor="middle" x="53.06" y="-761.45" font-family="Times,serif" font-size="14.00">main</text>
</g>
<!-- devel -->
<g id="node2" class="node">
<title>devel</title>
<polygon fill="none" stroke="black" points="157.56,-788.65 110.56,-788.65 110.56,-741.65 157.56,-741.65 157.56,-788.65"/>
<text text-anchor="middle" x="134.06" y="-761.45" font-family="Times,serif" font-size="14.00">devel</text>
</g>
<!-- main&#45;&gt;devel -->
<!-- commit0 -->
<g id="node4" class="node">
<title>commit0</title>
<ellipse fill="none" stroke="black" cx="53.06" cy="-673.78" rx="41.94" ry="26.74"/>
<text text-anchor="middle" x="53.06" y="-677.58" font-family="Times,serif" font-size="14.00">initial</text>
<text text-anchor="middle" x="53.06" y="-662.58" font-family="Times,serif" font-size="14.00">commit</text>
</g>
<!-- main&#45;&gt;commit0 -->
<!-- feature -->
<g id="node3" class="node">
<title>feature</title>
<polygon fill="none" stroke="black" points="248.56,-792.65 193.56,-792.65 193.56,-737.65 248.56,-737.65 248.56,-792.65"/>
<text text-anchor="middle" x="221.06" y="-768.95" font-family="Times,serif" font-size="14.00">feature</text>
<text text-anchor="middle" x="221.06" y="-753.95" font-family="Times,serif" font-size="14.00">branch</text>
</g>
<!-- devel&#45;&gt;feature -->
<!-- commit1 -->
<g id="node5" class="node">
<title>commit1</title>
<ellipse fill="none" stroke="black" cx="110.06" cy="-562.91" rx="42.79" ry="18"/>
<text text-anchor="middle" x="110.06" y="-559.21" font-family="Times,serif" font-size="14.00">commit1</text>
</g>
<!-- devel&#45;&gt;commit1 -->
<!-- commit3 -->
<g id="node7" class="node">
<title>commit3</title>
<ellipse fill="none" stroke="black" cx="161.06" cy="-387.91" rx="42.79" ry="18"/>
<text text-anchor="middle" x="161.06" y="-384.21" font-family="Times,serif" font-size="14.00">commit3</text>
</g>
<!-- feature&#45;&gt;commit3 -->
<!-- commit0&#45;&gt;commit1 -->
<g id="edge4" class="edge">
<title>commit0&#45;&gt;commit1</title>
<path fill="none" stroke="black" d="M66,-648.07C75.09,-630.71 87.22,-607.53 96.46,-589.89"/>
<polygon fill="black" stroke="black" points="99.72,-591.21 101.25,-580.73 93.51,-587.97 99.72,-591.21"/>
<text text-anchor="middle" x="94.06" y="-617.71" font-family="Times,serif" font-size="14.00">create</text>
<text text-anchor="middle" x="94.06" y="-602.71" font-family="Times,serif" font-size="14.00">devel branch</text>
</g>
<!-- commit8 -->
<g id="node11" class="node">
<title>commit8</title>
<ellipse fill="none" stroke="black" cx="36.06" cy="-37.48" rx="36.12" ry="37.45"/>
<text text-anchor="middle" x="36.06" y="-48.78" font-family="Times,serif" font-size="14.00">merge</text>
<text text-anchor="middle" x="36.06" y="-33.78" font-family="Times,serif" font-size="14.00">into</text>
<text text-anchor="middle" x="36.06" y="-18.78" font-family="Times,serif" font-size="14.00">main</text>
</g>
<!-- commit0&#45;&gt;commit8 -->
<g id="edge14" class="edge">
<title>commit0&#45;&gt;commit8</title>
<path fill="none" stroke="black" stroke-dasharray="5,2" d="M52.34,-646.84C49.73,-548.95 40.7,-211.16 37.34,-85.26"/>
<polygon fill="black" stroke="black" points="40.84,-85.06 37.07,-75.16 33.84,-85.25 40.84,-85.06"/>
</g>
<!-- commit2 -->
<g id="node6" class="node">
<title>commit2</title>
<ellipse fill="none" stroke="black" cx="110.06" cy="-489.91" rx="42.79" ry="18"/>
<text text-anchor="middle" x="110.06" y="-486.21" font-family="Times,serif" font-size="14.00">commit2</text>
</g>
<!-- commit1&#45;&gt;commit2 -->
<g id="edge6" class="edge">
<title>commit1&#45;&gt;commit2</title>
<path fill="none" stroke="black" d="M110.06,-544.72C110.06,-536.7 110.06,-526.95 110.06,-517.98"/>
<polygon fill="black" stroke="black" points="113.56,-517.94 110.06,-507.94 106.56,-517.94 113.56,-517.94"/>
</g>
<!-- commit2&#45;&gt;commit3 -->
<g id="edge8" class="edge">
<title>commit2&#45;&gt;commit3</title>
<path fill="none" stroke="black" d="M118.71,-471.94C126.67,-456.33 138.6,-432.95 147.77,-414.97"/>
<polygon fill="black" stroke="black" points="151.11,-416.12 152.54,-405.62 144.88,-412.94 151.11,-416.12"/>
<text text-anchor="middle" x="165.56" y="-442.71" font-family="Times,serif" font-size="14.00">create</text>
<text text-anchor="middle" x="165.56" y="-427.71" font-family="Times,serif" font-size="14.00">feature branch</text>
</g>
<!-- commit6 -->
<g id="node10" class="node">
<title>commit6</title>
<ellipse fill="none" stroke="black" cx="90.06" cy="-149.43" rx="36.12" ry="37.45"/>
<text text-anchor="middle" x="90.06" y="-160.73" font-family="Times,serif" font-size="14.00">merge</text>
<text text-anchor="middle" x="90.06" y="-145.73" font-family="Times,serif" font-size="14.00">into</text>
<text text-anchor="middle" x="90.06" y="-130.73" font-family="Times,serif" font-size="14.00">devel</text>
</g>
<!-- commit2&#45;&gt;commit6 -->
<g id="edge7" class="edge">
<title>commit2&#45;&gt;commit6</title>
<path fill="none" stroke="black" stroke-dasharray="5,2" d="M108.99,-471.6C105.97,-420.28 97.37,-273.8 92.87,-197.29"/>
<polygon fill="black" stroke="black" points="96.35,-196.75 92.27,-186.97 89.36,-197.16 96.35,-196.75"/>
</g>
<!-- commit4 -->
<g id="node8" class="node">
<title>commit4</title>
<ellipse fill="none" stroke="black" cx="161.06" cy="-314.91" rx="42.79" ry="18"/>
<text text-anchor="middle" x="161.06" y="-311.21" font-family="Times,serif" font-size="14.00">commit4</text>
</g>
<!-- commit3&#45;&gt;commit4 -->
<g id="edge10" class="edge">
<title>commit3&#45;&gt;commit4</title>
<path fill="none" stroke="black" d="M161.06,-369.72C161.06,-361.7 161.06,-351.95 161.06,-342.98"/>
<polygon fill="black" stroke="black" points="164.56,-342.94 161.06,-332.94 157.56,-342.94 164.56,-342.94"/>
</g>
<!-- commit5 -->
<g id="node9" class="node">
<title>commit5</title>
<ellipse fill="none" stroke="black" cx="161.06" cy="-241.91" rx="42.79" ry="18"/>
<text text-anchor="middle" x="161.06" y="-238.21" font-family="Times,serif" font-size="14.00">commit5</text>
</g>
<!-- commit4&#45;&gt;commit5 -->
<g id="edge11" class="edge">
<title>commit4&#45;&gt;commit5</title>
<path fill="none" stroke="black" d="M161.06,-296.72C161.06,-288.7 161.06,-278.95 161.06,-269.98"/>
<polygon fill="black" stroke="black" points="164.56,-269.94 161.06,-259.94 157.56,-269.94 164.56,-269.94"/>
</g>
<!-- commit5&#45;&gt;commit6 -->
<g id="edge12" class="edge">
<title>commit5&#45;&gt;commit6</title>
<path fill="none" stroke="black" d="M148.04,-224.31C139.82,-213.83 128.86,-199.88 118.69,-186.91"/>
<polygon fill="black" stroke="black" points="121.42,-184.72 112.49,-179.01 115.91,-189.04 121.42,-184.72"/>
</g>
<!-- commit6&#45;&gt;commit8 -->
<g id="edge13" class="edge">
<title>commit6&#45;&gt;commit8</title>
<path fill="none" stroke="black" d="M74.01,-115.74C68.56,-104.65 62.4,-92.1 56.65,-80.4"/>
<polygon fill="black" stroke="black" points="59.7,-78.67 52.15,-71.23 53.42,-81.75 59.7,-78.67"/>
</g>
</g>
</svg>
